<svg width="19" height="19" viewBox="0 0 19 19" fill="none" xmlns="http://www.w3.org/2000/svg">
<path d="M6.53548 9.91301H7.9098V15.6291C7.9098 15.742 8.00034 15.8334 8.11205 15.8334H10.4422C10.5539 15.8334 10.6444 15.742 10.6444 15.6291V9.93993H12.2244C12.3271 9.93993 12.4135 9.86203 12.4253 9.75896L12.6652 7.65459C12.6718 7.59669 12.6537 7.53871 12.6153 7.49527C12.5769 7.4518 12.522 7.42691 12.4644 7.42691H10.6445V6.10778C10.6445 5.71014 10.8564 5.50849 11.2745 5.50849C11.3341 5.50849 12.4644 5.50849 12.4644 5.50849C12.5761 5.50849 12.6666 5.41701 12.6666 5.30418V3.37256C12.6666 3.25971 12.5761 3.16826 12.4644 3.16826H10.8245C10.813 3.16769 10.7873 3.16675 10.7495 3.16675C10.465 3.16675 9.47593 3.22318 8.69471 3.94926C7.82915 4.75388 7.94944 5.71728 7.97826 5.88432V7.42687H6.53548C6.42376 7.42687 6.33325 7.51832 6.33325 7.63118V9.70869C6.33325 9.8215 6.42376 9.91301 6.53548 9.91301Z" fill="white" fill-opacity="0.89"/>
</svg>
