<svg width="19" height="19" viewBox="0 0 19 19" fill="none" xmlns="http://www.w3.org/2000/svg">
<rect width="19" height="19" fill="#1E1E1E"/>
<g id="Desktop - 11">
<rect width="1440" height="1477" transform="translate(-1255 -1398)" fill="white"/>
<g id="Frame 1428">
<rect width="1440" height="555" transform="translate(-1255 -476)" fill="#1A2349"/>
<g id="Frame 249">
<g id="Frame 248">
<g id="LinkedIn">
<path id="Vector" fill-rule="evenodd" clip-rule="evenodd" d="M4.70286 3.16675C5.54974 3.16675 6.23746 3.83434 6.23746 4.65682C6.23746 5.47954 5.54974 6.14714 4.70286 6.14714C3.85256 6.14714 3.16675 5.47954 3.16675 4.65682C3.16675 3.83434 3.85256 3.16675 4.70286 3.16675ZM3.55059 15.8334H5.85362V7.09093H3.55059V15.8334Z" fill="white" fill-opacity="0.89"/>
<path id="Vector_2" fill-rule="evenodd" clip-rule="evenodd" d="M7.38892 7.10887H9.98497V8.3015H10.0221C10.3832 7.61563 11.2674 6.89227 12.585 6.89227C15.3267 6.89227 15.8334 8.69883 15.8334 11.0486V15.8335H13.126V11.5907C13.126 10.579 13.1081 9.27738 11.7182 9.27738C10.3088 9.27738 10.0939 10.38 10.0939 11.5183V15.8335H7.38892V7.10887Z" fill="white" fill-opacity="0.89"/>
</g>
</g>
</g>
</g>
</g>
</svg>
