<svg width="19" height="19" viewBox="0 0 19 19" fill="none" xmlns="http://www.w3.org/2000/svg">
<rect width="19" height="19" fill="#1E1E1E"/>
<g id="Desktop - 11">
<rect width="1440" height="1477" transform="translate(-1228 -1398)" fill="white"/>
<g id="Frame 1428">
<rect width="1440" height="555" transform="translate(-1228 -476)" fill="#1A2349"/>
<g id="Frame 249">
<g id="Frame 248">
<g id="Twitter">
<path id="Vector" fill-rule="evenodd" clip-rule="evenodd" d="M7.10547 15.8335C12.7819 15.8335 15.8859 10.9608 15.8859 6.73552C15.8859 6.59696 15.8832 6.4591 15.8771 6.32213C16.4796 5.87077 17.0034 5.30752 17.4167 4.66643C16.8637 4.92096 16.2686 5.09244 15.6444 5.16981C16.2815 4.77397 16.7707 4.14768 17.0014 3.40094C16.405 3.76721 15.7447 4.03361 15.0418 4.1771C14.4788 3.55558 13.6767 3.16684 12.7893 3.16684C11.0849 3.16684 9.70275 4.59888 9.70275 6.36429C9.70275 6.61521 9.72982 6.85929 9.78286 7.09336C7.2181 6.95973 4.94371 5.68725 3.4219 3.75241C3.15655 4.22493 3.00394 4.77397 3.00394 5.3597C3.00394 6.46908 3.54876 7.44836 4.37719 8.02134C3.87107 8.00519 3.39544 7.86101 2.97959 7.62128C2.97888 7.63459 2.97888 7.64807 2.97888 7.66212C2.97888 9.2109 4.04271 10.5038 5.45469 10.797C5.19549 10.8701 4.92273 10.9095 4.64115 10.9095C4.44234 10.9095 4.24904 10.8891 4.06103 10.8518C4.45385 12.1223 5.59306 13.0467 6.94406 13.0727C5.88753 13.9304 4.55707 14.4414 3.11121 14.4414C2.86209 14.4414 2.61655 14.4267 2.375 14.3973C3.74082 15.3042 5.36237 15.8335 7.10547 15.8335Z" fill="white" fill-opacity="0.89"/>
</g>
</g>
</g>
</g>
</g>
</svg>
