<svg width="19" height="19" viewBox="0 0 19 19" fill="none" xmlns="http://www.w3.org/2000/svg">
<path fill-rule="evenodd" clip-rule="evenodd" d="M15.9072 4.32158C16.6337 4.51717 17.2065 5.08996 17.4021 5.81643C17.7653 7.14364 17.7513 9.90978 17.7513 9.90978C17.7513 9.90978 17.7513 12.662 17.4021 13.9892C17.2065 14.7157 16.6337 15.2885 15.9072 15.4841C14.5799 15.8333 9.27119 15.8333 9.27119 15.8333C9.27119 15.8333 3.97631 15.8333 2.63513 15.4701C1.90866 15.2745 1.33587 14.7017 1.14028 13.9752C0.791016 12.662 0.791016 9.89584 0.791016 9.89584C0.791016 9.89584 0.791016 7.14364 1.14028 5.81643C1.33587 5.08996 1.92263 4.5032 2.63513 4.30761C3.96234 3.95834 9.27119 3.95834 9.27119 3.95834C9.27119 3.95834 14.5799 3.95834 15.9072 4.32158ZM7.58051 7.35327L11.9952 9.89592L7.58051 12.4386V7.35327Z" fill="white"/>
</svg>
