<svg width="431" height="137" viewBox="0 0 431 137" fill="none" xmlns="http://www.w3.org/2000/svg">
<path d="M31.616 31H22.816V17.8H9.616V31H0.816V0.199998H9.616V13.4H22.816V0.199998H31.616V31ZM68.0535 26.6H63.6535V31H41.6535V26.6H37.2535V4.6H41.6535V0.199998H63.6535V4.6H68.0535V26.6ZM59.2535 26.6V4.6H46.0535V26.6H59.2535ZM104.491 31H95.691V26.6H91.291V22.2H86.891V26.6H82.491V31H73.691V0.199998H82.491V13.4H86.891V9H91.291V13.4H95.691V0.199998H104.491V31ZM177.366 22.2H172.966V26.6H168.566V31H146.566V0.199998H168.566V4.6H172.966V9H177.366V22.2ZM168.566 22.2V9H164.166V4.6H155.366V26.6H164.166V22.2H168.566ZM209.412 4.6H200.612V26.6H209.412V31H183.012V26.6H191.812V4.6H183.012V0.199998H209.412V4.6ZM248.05 22.2H243.65V26.6H239.25V31H217.25V0.199998H239.25V4.6H243.65V9H248.05V22.2ZM239.25 22.2V9H234.85V4.6H226.05V26.6H234.85V22.2H239.25ZM320.925 31H298.925V26.512H294.525V22.2H290.125V9H294.525V4.6H298.925V0.199998H320.925V4.6H303.325V9H298.925V22.2H303.325V26.6H312.125V17.8H307.725V13.4H320.925V31ZM357.362 31H348.562V22.2H335.362V31H326.562V9H330.962V4.6H335.362V0.199998H348.562V4.6H352.962V9H357.362V31ZM348.562 17.8V9H344.162V4.6H339.762V9H335.362V17.8H348.562ZM393.8 31H385V17.8H380.6V22.2H376.2V17.8H371.8V31H363V0.199998H371.8V4.6H376.2V9H380.6V4.6H385V0.199998H393.8V31ZM430.237 31H399.437V0.199998H430.237V4.6H408.237V13.4H425.837V17.8H408.237V26.6H430.237V31ZM31.616 79.6H27.216V84H0.816V53.2H27.216V57.6H31.616V66.4H27.216V70.8H31.616V79.6ZM22.816 66.4V57.6H9.616V66.4H22.816ZM22.816 79.6V70.8H9.616V79.6H22.816ZM68.0535 79.6H63.6535V84H41.6535V79.6H37.2535V57.6H41.6535V53.2H63.6535V57.6H68.0535V79.6ZM59.2535 79.6V57.6H46.0535V79.6H59.2535ZM102.291 66.4H97.891V70.8H93.491V84H84.691V70.8H80.247V66.4H75.891V53.2H84.691V66.4H93.491V53.2H102.291V66.4ZM177.366 79.6H172.966V84H155.366V79.6H150.966V75.2H146.566V62H150.966V57.6H155.366V53.2H172.966V57.6H177.366V62H168.566V57.6H159.766V62H155.366V75.2H159.766V79.6H168.566V75.2H177.366V79.6ZM213.804 84H205.004V70.8H191.803V84H183.004V53.2H191.803V66.4H205.004V53.2H213.804V84ZM250.241 84H241.441V75.2H228.241V84H219.441V62H223.841V57.6H228.241V53.2H241.441V57.6H245.841V62H250.241V84ZM241.441 70.8V62H237.041V57.6H232.641V62H228.241V70.8H241.441ZM286.679 84H277.879V79.6H273.479V75.2H269.079V70.8H264.678V84H255.879V53.2H264.678V57.6H269.079V62H273.479V66.4H277.879V53.2H286.679V84ZM323.116 84H301.116V79.512H296.716V75.2H292.316V62H296.716V57.6H301.116V53.2H323.116V57.6H305.516V62H301.116V75.2H305.516V79.6H314.316V70.8H309.916V66.4H323.116V84ZM359.554 84H328.754V53.2H359.554V57.6H337.553V66.4H355.154V70.8H337.553V79.6H359.554V84ZM29.416 110.6H20.616V137H11.816V110.6H3.016V106.2H29.416V110.6ZM68.0535 137H59.2535V123.8H46.0535V137H37.2535V106.2H46.0535V119.4H59.2535V106.2H68.0535V137ZM104.491 137H73.691V106.2H104.491V110.6H82.491V119.4H100.091V123.8H82.491V132.6H104.491V137ZM177.366 137H168.566V132.6H164.166V128.2H159.766V132.6H155.366V137H146.566V106.2H155.366V119.4H159.766V115H164.166V119.4H168.566V106.2H177.366V137ZM213.804 132.6H209.404V137H187.404V132.6H183.004V110.6H187.404V106.2H209.404V110.6H213.804V132.6ZM205.004 132.6V110.6H191.803V132.6H205.004ZM250.241 137H237.041V132.6H232.641V128.2H228.241V137H219.441V106.2H245.841V110.6H250.241V123.8H241.441V128.2H245.841V132.6H250.241V137ZM241.441 119.4V110.6H228.241V123.8H237.041V119.4H241.441ZM286.679 137H255.879V106.2H264.678V132.6H286.679V137ZM323.116 128.2H318.716V132.6H314.316V137H292.316V106.2H314.316V110.6H318.716V115H323.116V128.2ZM314.316 128.2V115H309.916V110.6H301.116V132.6H309.916V128.2H314.316ZM359.554 119.4H350.754V123.8H346.354V128.2H341.954V119.4H346.354V115H350.754V110.6H337.553V115H328.754V110.6H333.154V106.2H355.154V110.6H359.554V119.4ZM346.354 137H341.954V132.6H346.354V137Z" fill="#B80A41"/>
</svg>
